# Blender 4.3.2
# www.blender.org
mtllib ino model.mtl
o Plane
v -0.252307 0.524746 -0.000000
v -0.563117 0.994914 -0.000000
v -0.527845 0.995246 -0.000000
v 0.255201 0.520931 -0.000000
v 0.530353 0.995005 -0.000000
v 0.571838 0.994878 -0.000000
v 0.861921 0.491676 -0.000000
v 0.849202 0.457333 -0.000000
v 0.294632 0.456061 -0.000000
v 0.041514 0.018510 0.000000
v 0.294632 -0.422856 0.000000
v 0.845386 -0.425400 0.000000
v 0.860650 -0.463559 0.000000
v 0.564403 -0.967338 0.000000
v 0.532604 -0.967338 0.000000
v 0.256449 -0.492802 0.000000
v -0.256924 -0.493948 0.000000
v -0.527557 -0.960891 0.000000
v -0.565964 -0.961069 0.000000
v -0.854194 -0.466357 0.000000
v -0.838931 -0.425146 0.000000
v -0.292501 -0.426672 0.000000
v -0.036076 0.009861 0.000000
v -0.290974 0.457079 -0.000000
v -0.828601 0.453884 -0.000000
v -0.851496 0.501130 -0.000000
v -0.848213 0.470407 -0.000000
v -0.545339 1.000501 -0.000000
v 0.551096 0.999872 -0.000000
v 0.860886 0.470363 -0.000000
v 0.857455 -0.442705 0.000000
v 0.549942 -0.971036 0.000000
v -0.547187 -0.967796 0.000000
v -0.854230 -0.441662 0.000000
v -0.547466 0.901442 -0.000000
v -0.765837 0.518371 -0.000000
v 0.774434 0.518064 -0.000000
v -0.320506 0.518064 -0.000000
v 0.329103 0.518371 -0.000000
v 0.547474 0.901442 -0.000000
v 0.230445 -0.430711 0.000000
v -0.214886 -0.430405 0.000000
v 0.003485 -0.047334 0.000000
v -0.770896 -0.491791 0.000000
v -0.325565 -0.492098 0.000000
v -0.543937 -0.875168 0.000000
v 0.324408 -0.491791 0.000000
v 0.769739 -0.492098 0.000000
v 0.551368 -0.875168 0.000000
v -0.226907 0.456985 -0.000000
v 0.218424 0.456678 -0.000000
v 0.000052 0.073607 0.000000
v -0.252307 0.524746 0.102371
v -0.563117 0.994914 0.102371
v -0.527845 0.995246 0.102371
v 0.255201 0.520931 0.102371
v 0.530353 0.995005 0.102371
v 0.571838 0.994878 0.102371
v 0.861921 0.491676 0.102371
v 0.849202 0.457333 0.102371
v 0.294632 0.456061 0.102371
v 0.041514 0.018510 0.102371
v 0.294632 -0.422856 0.102371
v 0.845386 -0.425400 0.102371
v 0.860650 -0.463559 0.102371
v 0.564403 -0.967338 0.102371
v 0.532604 -0.967338 0.102371
v 0.256449 -0.492802 0.102371
v -0.256924 -0.493948 0.102371
v -0.527557 -0.960891 0.102371
v -0.565964 -0.961069 0.102371
v -0.854194 -0.466357 0.102371
v -0.838931 -0.425146 0.102371
v -0.292501 -0.426672 0.102371
v -0.036076 0.009861 0.102371
v -0.290974 0.457079 0.102371
v -0.828601 0.453884 0.102371
v -0.851496 0.501130 0.102371
v -0.848213 0.470407 0.102371
v -0.545339 1.000501 0.102371
v 0.551096 0.999872 0.102371
v 0.860886 0.470363 0.102371
v 0.857455 -0.442705 0.102371
v 0.549942 -0.971036 0.102371
v -0.547187 -0.967796 0.102371
v -0.854230 -0.441662 0.102371
v -0.547466 0.901442 0.102371
v -0.765837 0.518371 0.102371
v 0.774434 0.518064 0.102371
v -0.320506 0.518064 0.102371
v 0.329103 0.518371 0.102371
v 0.547474 0.901442 0.102371
v 0.230445 -0.430711 0.102371
v -0.214886 -0.430405 0.102371
v 0.003485 -0.047334 0.102371
v -0.770896 -0.491791 0.102371
v -0.325565 -0.492098 0.102371
v -0.543937 -0.875168 0.102371
v 0.324408 -0.491791 0.102371
v 0.769739 -0.492098 0.102371
v 0.551368 -0.875168 0.102371
v -0.226907 0.456985 0.102371
v 0.218424 0.456678 0.102371
v 0.000052 0.073607 0.102371
vn -0.0000 -0.0000 1.0000
vn -0.0000 -0.0000 -1.0000
vn 0.8605 0.5094 -0.0000
vn -0.0028 -1.0000 -0.0000
vn 0.0007 1.0000 -0.0000
vn 0.8622 -0.5065 -0.0000
vn -0.8688 0.4952 -0.0000
vn 0.8688 0.4952 -0.0000
vn 0.7931 -0.6092 -0.0000
vn -0.0059 1.0000 -0.0000
vn -0.0007 -1.0000 -0.0000
vn 0.9943 0.1063 -0.0000
vn 0.8688 -0.4952 -0.0000
vn 0.6443 0.7648 -0.0000
vn 0.8635 -0.5043 -0.0000
vn -0.8629 -0.5053 -0.0000
vn 0.2998 -0.9540 -0.0000
vn -0.2877 -0.9577 -0.0000
vn 0.0075 1.0000 -0.0000
vn -0.9988 0.0485 -0.0000
vn -0.8202 -0.5721 -0.0000
vn -0.8727 -0.4882 -0.0000
vn 0.0201 -0.9998 -0.0000
vn 0.2477 -0.9688 -0.0000
vn -0.8664 -0.4994 -0.0000
vn -0.3318 0.9433 -0.0000
vn -0.7445 0.6676 -0.0000
vn 1.0000 0.0015 -0.0000
vn -0.0023 1.0000 -0.0000
vn -0.8656 0.5007 -0.0000
vn -0.8675 -0.4975 -0.0000
vn 0.8902 -0.4555 -0.0000
vn -0.0046 -1.0000 -0.0000
vn -0.8899 0.4562 -0.0000
vn 0.8620 -0.5069 -0.0000
vn -0.2086 -0.9780 -0.0000
vn -0.8925 0.4510 -0.0000
vn -0.8643 -0.5030 -0.0000
vn -0.0022 1.0000 -0.0000
vn -0.8652 0.5014 -0.0000
vn -0.2995 0.9541 -0.0000
vn -0.8605 -0.5094 -0.0000
vn 0.3373 0.9414 -0.0000
vn -0.4907 0.8714 -0.0000
vn 0.8640 0.5034 -0.0000
vn 0.7336 -0.6796 -0.0000
vn 0.9885 0.1514 -0.0000
vn 0.8649 -0.5020 -0.0000
vn 0.8315 -0.5555 -0.0000
vt 0.000000 0.000000
s 1
usemtl Material.001
f 25/1/1 24/1/1 38/1/1 36/1/1 26/1/1 27/1/1
f 2/1/1 26/1/1 36/1/1 35/1/1
f 3/1/1 28/1/1 2/1/1 35/1/1 38/1/1 24/1/1 50/1/1 1/1/1
f 50/1/1 24/1/1 23/1/1 43/1/1 10/1/1 52/1/1 1/1/1
f 18/1/1 17/1/1 42/1/1 43/1/1 23/1/1 22/1/1 19/1/1 33/1/1
f 46/1/1 19/1/1 45/1/1
f 20/1/1 19/1/1 46/1/1 44/1/1
f 21/1/1 34/1/1 20/1/1 44/1/1 45/1/1 22/1/1
f 17/1/1 16/1/1 41/1/1 42/1/1
f 12/1/1 11/1/1 47/1/1 48/1/1 13/1/1 31/1/1
f 31/1/2 13/1/2 14/1/2 32/1/2 15/1/2 49/1/2 48/1/2
f 16/1/2 47/1/2 49/1/2 15/1/2
f 10/1/1 43/1/1 41/1/1 16/1/1 47/1/1 11/1/1
f 1/1/2 4/1/2 51/1/2 50/1/2
f 10/1/1 9/1/1 51/1/1 52/1/1
f 4/1/2 5/1/2 29/1/2 6/1/2 40/1/2
f 39/1/1 40/1/1 6/1/1 29/1/1 5/1/1 4/1/1
f 8/1/1 30/1/1 7/1/1 37/1/1 39/1/1 4/1/1 51/1/1 9/1/1
f 40/1/1 37/1/1 7/1/1 6/1/1
f 77/1/2 79/1/2 78/1/2 88/1/2 90/1/2 76/1/2
f 54/1/2 87/1/2 88/1/2 78/1/2
f 55/1/2 53/1/2 102/1/2 76/1/2 90/1/2 87/1/2 54/1/2 80/1/2
f 102/1/2 53/1/2 104/1/2 62/1/2 95/1/2 75/1/2 76/1/2
f 70/1/2 85/1/2 71/1/2 74/1/2 75/1/2 95/1/2 94/1/2 69/1/2
f 98/1/2 97/1/2 71/1/2
f 72/1/2 96/1/2 98/1/2 71/1/2
f 73/1/2 74/1/2 97/1/2 96/1/2 72/1/2 86/1/2
f 69/1/2 94/1/2 93/1/2 68/1/2
f 64/1/2 83/1/2 65/1/2 100/1/2 99/1/2 63/1/2
f 83/1/1 100/1/1 101/1/1 67/1/1 84/1/1 66/1/1 65/1/1
f 68/1/1 67/1/1 101/1/1 99/1/1
f 62/1/2 63/1/2 99/1/2 68/1/2 93/1/2 95/1/2
f 53/1/1 102/1/1 103/1/1 56/1/1
f 62/1/2 104/1/2 103/1/2 61/1/2
f 56/1/1 92/1/1 58/1/1 81/1/1 57/1/1
f 91/1/2 56/1/2 57/1/2 81/1/2 58/1/2 92/1/2
f 60/1/2 61/1/2 103/1/2 56/1/2 91/1/2 89/1/2 59/1/2 82/1/2
f 92/1/2 58/1/2 59/1/2 89/1/2
f 49/1/3 47/1/3 99/1/3 101/1/3
f 21/1/4 22/1/4 74/1/4 73/1/4
f 48/1/5 47/1/5 99/1/5 100/1/5
f 22/1/6 23/1/6 75/1/6 74/1/6
f 48/1/7 49/1/7 101/1/7 100/1/7
f 23/1/8 24/1/8 76/1/8 75/1/8
f 4/1/9 40/1/9 92/1/9 56/1/9
f 52/1/3 50/1/3 102/1/3 104/1/3
f 24/1/10 25/1/10 77/1/10 76/1/10
f 50/1/11 51/1/11 103/1/11 102/1/11
f 27/1/12 26/1/12 78/1/12 79/1/12
f 52/1/13 51/1/13 103/1/13 104/1/13
f 25/1/14 27/1/14 79/1/14 77/1/14
f 26/1/15 2/1/15 54/1/15 78/1/15
f 3/1/16 1/1/16 53/1/16 55/1/16
f 2/1/17 28/1/17 80/1/17 54/1/17
f 28/1/18 3/1/18 55/1/18 80/1/18
f 4/1/19 1/1/19 53/1/19 56/1/19
f 7/1/20 30/1/20 82/1/20 59/1/20
f 12/1/21 31/1/21 83/1/21 64/1/21
f 1/1/22 52/1/22 104/1/22 53/1/22
f 32/1/23 14/1/24 66/1/24 84/1/23
f 6/1/25 7/1/25 59/1/25 58/1/25
f 18/1/26 33/1/26 85/1/26 70/1/26
f 30/1/27 8/1/27 60/1/27 82/1/27
f 20/1/28 34/1/28 86/1/28 72/1/28
f 8/1/29 9/1/29 61/1/29 60/1/29
f 37/1/3 40/1/3 92/1/3 89/1/3
f 9/1/30 10/1/30 62/1/30 61/1/30
f 35/1/7 36/1/7 88/1/7 87/1/7
f 10/1/31 11/1/31 63/1/31 62/1/31
f 19/1/32 22/1/32 74/1/32 71/1/32
f 36/1/11 38/1/11 90/1/11 88/1/11
f 11/1/33 12/1/33 64/1/33 63/1/33
f 45/1/34 19/1/34 71/1/34 97/1/34
f 38/1/3 35/1/3 87/1/3 90/1/3
f 39/1/11 37/1/11 89/1/11 91/1/11
f 14/1/35 13/1/35 65/1/35 66/1/35
f 40/1/7 39/1/7 91/1/7 92/1/7
f 15/1/36 32/1/23 84/1/23 67/1/36
f 22/1/37 45/1/37 97/1/37 74/1/37
f 41/1/3 43/1/3 95/1/3 93/1/3
f 16/1/38 15/1/38 67/1/38 68/1/38
f 42/1/11 41/1/11 93/1/11 94/1/11
f 16/1/39 17/1/39 69/1/39 68/1/39
f 43/1/7 42/1/7 94/1/7 95/1/7
f 17/1/40 18/1/40 70/1/40 69/1/40
f 13/1/41 48/1/41 100/1/41 65/1/41
f 44/1/42 46/1/42 98/1/42 96/1/42
f 33/1/43 19/1/43 71/1/43 85/1/43
f 31/1/44 48/1/44 100/1/44 83/1/44
f 45/1/5 44/1/5 96/1/5 97/1/5
f 19/1/45 20/1/45 72/1/45 71/1/45
f 46/1/13 45/1/13 97/1/13 98/1/13
f 34/1/46 21/1/46 73/1/46 86/1/46
f 31/1/47 83/1/47 65/1/47 13/1/47
f 56/1/48 4/1/48 5/1/48 57/1/48
f 56/1/49 4/1/49 5/1/49 29/1/49 6/1/49 58/1/49 81/1/49 57/1/49
